<?xml version="1.0" encoding="UTF-8" standalone="no"?>
<!-- Created with Inkscape (http://www.inkscape.org/) -->

<svg
   xmlns:dc="http://purl.org/dc/elements/1.1/"
   xmlns:cc="http://creativecommons.org/ns#"
   xmlns:rdf="http://www.w3.org/1999/02/22-rdf-syntax-ns#"
   xmlns:svg="http://www.w3.org/2000/svg"
   xmlns="http://www.w3.org/2000/svg"
   xmlns:sodipodi="http://sodipodi.sourceforge.net/DTD/sodipodi-0.dtd"
   xmlns:inkscape="http://www.inkscape.org/namespaces/inkscape"
   width="744.09448819"
   height="1052.3622047"
   id="svg2"
   version="1.1"
   inkscape:version="0.48.2 r9819"
   sodipodi:docname="favicons.svg">
  <defs
     id="defs4" />
  <sodipodi:namedview
     id="base"
     pagecolor="#ffffff"
     bordercolor="#666666"
     borderopacity="1.0"
     inkscape:pageopacity="0.0"
     inkscape:pageshadow="2"
     inkscape:zoom="0.7"
     inkscape:cx="349.9335"
     inkscape:cy="370.79708"
     inkscape:document-units="px"
     inkscape:current-layer="layer1"
     showgrid="true"
     inkscape:window-width="1451"
     inkscape:window-height="913"
     inkscape:window-x="1611"
     inkscape:window-y="62"
     inkscape:window-maximized="0">
    <inkscape:grid
       type="xygrid"
       id="grid2985" />
  </sodipodi:namedview>
  <metadata
     id="metadata7">
    <rdf:RDF>
      <cc:Work
         rdf:about="">
        <dc:format>image/svg+xml</dc:format>
        <dc:type
           rdf:resource="http://purl.org/dc/dcmitype/StillImage" />
        <dc:title></dc:title>
      </cc:Work>
    </rdf:RDF>
  </metadata>
  <g
     inkscape:label="Layer 1"
     inkscape:groupmode="layer"
     id="layer1">
    <g
       id="g3131"
       transform="translate(164.99999,20.000003)"
       inkscape:export-filename="/Users/mayarichman/projects/mayarichman.github.com/img/favicon.png"
       inkscape:export-xdpi="2.9387755"
       inkscape:export-ydpi="2.9387755">
      <g
         transform="translate(-267.5,-132.50001)"
         id="g3769">
        <g
           id="g3766">
          <path
             transform="matrix(1.540625,0,0,1.4848485,-188.15625,-333.26651)"
             d="m 570,687.36218 c 0,91.12699 -71.63444,165 -160,165 -88.36556,0 -160,-73.87301 -160,-165 0,-91.12698 71.63444,-165 160,-165 88.36556,0 160,73.87302 160,165 z"
             sodipodi:ry="165"
             sodipodi:rx="160"
             sodipodi:cy="687.36218"
             sodipodi:cx="410"
             id="path2989"
             style="fill:#04618d;fill-opacity:1;fill-rule:nonzero;stroke:none"
             sodipodi:type="arc" />
        </g>
        <path
           style="fill:#ffffff;fill-opacity:1;fill-rule:nonzero;stroke:none"
           d="m 220,563.40763 469.97816,0 c 0.56849,0 -83.22737,115.14635 -82.89037,115.65789 l 83.91652,127.38291 c 0.337,0.51155 -0.45766,1.10977 -1.02615,1.10977 l -469.97816,0 c -0.56849,0 -1.02615,-0.49496 -1.02615,-1.10977 l 0,-241.93102 c 0,-0.61482 0.45766,-1.10978 1.02615,-1.10978 z"
           id="rect3759"
           inkscape:connector-curvature="0"
           sodipodi:nodetypes="sssssssss" />
      </g>
      <path
         transform="matrix(1.4411765,0,0,1.4411765,-382.35295,-452.65981)"
         d="m 470,697.36218 c 0,46.94421 -38.0558,85 -85,85 -46.9442,0 -85,-38.05579 -85,-85 0,-46.9442 38.0558,-85 85,-85 46.9442,0 85,38.0558 85,85 z"
         sodipodi:ry="85"
         sodipodi:rx="85"
         sodipodi:cy="697.36218"
         sodipodi:cx="385"
         id="path3764"
         style="fill:#80b0f0;fill-opacity:1;fill-rule:nonzero;stroke:none"
         sodipodi:type="arc" />
    </g>
  </g>
</svg>
